<svg xmlns="http://www.w3.org/2000/svg" version="1.1" xmlns:xlink="http://www.w3.org/1999/xlink" xmlns:svgjs="http://svgjs.com/svgjs" width="1980" height="1020" preserveAspectRatio="none" viewBox="0 0 1980 1020"><g mask="url(&quot;#SvgjsMask1109&quot;)" fill="none"><rect width="1980" height="1020" x="0" y="0" fill="rgba(230, 230, 230, 1)"></rect><path d="M82 1020L1102 0L1679.5 0L659.5 1020z" fill="url(#SvgjsLinearGradient1110)"></path><path d="M669.4 1020L1689.4 0L2215.9 0L1195.9 1020z" fill="url(#SvgjsLinearGradient1110)"></path><path d="M1937 1020L917 0L611 0L1631 1020z" fill="url(#SvgjsLinearGradient1111)"></path><path d="M1236.6 1020L216.5999999999999 0L-393.9000000000001 0L626.0999999999999 1020z" fill="url(#SvgjsLinearGradient1111)"></path><path d="M1338.623692172538 1020L1980 378.6236921725382L1980 1020z" fill="url(#SvgjsLinearGradient1110)"></path><path d="M0 1020L641.3763078274618 1020L 0 378.6236921725382z" fill="url(#SvgjsLinearGradient1111)"></path></g><defs><mask id="SvgjsMask1109"><rect width="1980" height="1020" fill="#ffffff"></rect></mask><linearGradient x1="0%" y1="100%" x2="100%" y2="0%" id="SvgjsLinearGradient1110"><stop stop-color="rgba(153, 138, 138, 1)" offset="0"></stop><stop stop-opacity="0" stop-color="rgba(153, 138, 138, 1)" offset="0.66"></stop></linearGradient><linearGradient x1="100%" y1="100%" x2="0%" y2="0%" id="SvgjsLinearGradient1111"><stop stop-color="rgba(153, 138, 138, 1)" offset="0"></stop><stop stop-opacity="0" stop-color="rgba(153, 138, 138, 1)" offset="0.66"></stop></linearGradient></defs></svg>