<svg xmlns="http://www.w3.org/2000/svg" version="1.1" xmlns:xlink="http://www.w3.org/1999/xlink" xmlns:svgjs="http://svgjs.com/svgjs" width="2000" height="350" preserveAspectRatio="none" viewBox="0 0 2000 350"><g mask="url(&quot;#SvgjsMask1050&quot;)" fill="none"><rect width="2000" height="350" x="0" y="0" fill="rgba(120, 150, 129, 1)"></rect><path d="M0,419.321C79.837,409.558,166.258,405.926,226.96,353.157C285.253,302.482,276.664,210.754,316.229,144.417C362.942,66.096,490.128,21.649,478.639,-68.818C467.216,-158.765,330.795,-166.789,268.357,-232.533C210.212,-293.757,209.04,-412.274,128.47,-437.527C48.166,-462.696,-24.225,-379.899,-102.399,-348.738C-171.837,-321.059,-245.627,-309.537,-305.36,-264.596C-375.913,-211.514,-471.252,-156.519,-475.121,-68.312C-479.056,21.406,-359.252,65.356,-323.444,147.712C-286.559,232.545,-336.516,353.911,-265.675,413.399C-196.437,471.541,-89.743,430.295,0,419.321" fill="#70907a"></path><path d="M2000 875.044C2111.41 867.58 2231.453 916.495 2327.859 860.159 2425.041 803.369 2458.276 683.0260000000001 2504.341 580.325 2550.101 478.303 2614.941 374.475 2595.055 264.444 2575.337 155.34 2474.673 85.35500000000002 2400.064 3.3430000000000177 2327.375-76.55799999999999 2256.448-152.99599999999998 2164.189-209.17600000000004 2045.692-281.33299999999997 1927.287-379.24 1788.943-368.793 1643.8020000000001-357.83299999999997 1499.282-274.73199999999997 1419.568-152.947 1342.137-34.65100000000001 1387.4850000000001 119.43700000000001 1377.08 260.438 1367.521 389.972 1311.508 521.738 1360.9160000000002 641.86 1410.9009999999998 763.386 1519.193 861.027 1642.637 906.068 1757.285 947.9 1878.232 883.202 2000 875.044" fill="#809c88"></path></g><defs><mask id="SvgjsMask1050"><rect width="2000" height="350" fill="#ffffff"></rect></mask></defs></svg>